# xmcd
#
# Track frame offsets:
#	150
#	14384
#	34408
#	50223
#	64597
#	81312
#	94191
#	109491
#	126089
#	140469
#	152227
#	164326
#	180665
#	196690
#	211530
#	224635
#	242067
#	272183
#	287267
#	305565
#
# Disc length: 4335 seconds
#
# Revision: 5
# Processed by: cddbd v1.5.2PL0 Copyright (c) Steve Scherf et al.
# Submitted via: audiograbber 1.83.01
#
DISCID=2a10ed14
DTITLE=Sussi and Leo - The Road Show
DYEAR=2001
DGENRE=Pop Rock
TTITLE0=Sussi and Leo - Bad Moon Rising
TTITLE1=Sussi and Leo - Walk Of Life
TTITLE2=Sussi and Leo - Wonderful Tonight
TTITLE3=Sussi and Leo - Står På En Alpetop
TTITLE4=Sussi and Leo - Have You Ever Seen The Rain
TTITLE5=Sussi and Leo - Proud Mary
TTITLE6=Sussi and Leo - Living Next Door To Alice
TTITLE7=Sussi and Leo - Jail House Rock
TTITLE8=Sussi and Leo - Seasons In The Sun
TTITLE9=Sussi and Leo - Pas På Den Knaldrøde Gummibåd
TTITLE10=Sussi and Leo - Great Balls Of Fire
TTITLE11=Sussi and Leo - Smoke On The Water
TTITLE12=Sussi and Leo - House Of The Rising Sun
TTITLE13=Sussi and Leo - Himmelhunden
TTITLE14=Sussi and Leo - In The Summertime
TTITLE15=Sussi and Leo - Sikken En Fest
TTITLE16=Sussi and Leo - Johnny Be Good
TTITLE17=Little Rock Country Band - Show Me (All About Love)
TTITLE18=Little Rock Country Band - Tougher Than The Rest
TTITLE19=Little Rock Country Band - Tell Me Why
EXTD=
EXTT0=
EXTT1=
EXTT2=
EXTT3=
EXTT4=
EXTT5=
EXTT6=
EXTT7=
EXTT8=
EXTT9=
EXTT10=
EXTT11=
EXTT12=
EXTT13=
EXTT14=
EXTT15=
EXTT16=
EXTT17=
EXTT18=
EXTT19=
PLAYORDER=
